/* XPM */
static char *ceb6d334920845f7ab29df9a9d9b9bfbmlz9YkwpOUL9KKaa[] = {
/* columns rows colors chars-per-pixel */
"32 32 2 1 ",
"  c None",
". c #0013FF",
/* pixels */
"                                ",
"                                ",
"                                ",
"            ........            ",
"          ...                   ",
"        ...                     ",
"       ..                       ",
"      ..                        ",
"     .                          ",
"    .                           ",
"   ..                           ",
"   .                            ",
"   .                            ",
"   .                            ",
"  .                             ",
"  .                             ",
"  .                             ",
"  ..                            ",
"   .                            ",
"   .                            ",
"   ..                           ",
"    ...                         ",
"      ................          ",
"                                ",
"                                ",
"                                ",
"                                ",
"                                ",
"                                ",
"                                ",
"                                ",
"                                "
};
