/* XPM */
static char *_a19a6a2dd874028fbb34528f20f5cf7oyVDQ3HEbXBaZUmo[] = {
/* columns rows colors chars-per-pixel */
"32 32 2 1 ",
"  c None",
". c #FFF700",
/* pixels */
"                                ",
"                                ",
"                                ",
"                                ",
"                                ",
"                                ",
"                                ",
"                                ",
"     ..................         ",
"     .                          ",
"     .                          ",
"     .                          ",
"     .                          ",
"     .                          ",
"     .                          ",
"     ..................         ",
"     .                          ",
"     .                          ",
"     .                          ",
"     .                          ",
"     .                          ",
"     .                          ",
"     .                          ",
"     ..................         ",
"                                ",
"                                ",
"                                ",
"                                ",
"                                ",
"                                ",
"                                ",
"                                "
};
