/* XPM */
static char *_2cb6543711e4d50b70e1f6f483a3558NQLfJzrFGhADR3Fm[] = {
/* columns rows colors chars-per-pixel */
"32 32 2 1 ",
"  c None",
". c red",
/* pixels */
"                                ",
"                                ",
"                                ",
"                                ",
"                                ",
"                                ",
"                                ",
"     ......      .    .         ",
"     .                .         ",
"     .                .         ",
"     .            .   .         ",
"     .....  ..    .   .         ",
"     .     ...    .   .         ",
"     .     . ..   .   .         ",
"     .     ... .. .   .         ",
"     .                          ",
"                                ",
"                                ",
"                                ",
"                                ",
"                                ",
"                                ",
"                                ",
"                                ",
"                                ",
"                                ",
"                                ",
"                                ",
"                                ",
"                                ",
"                                ",
"                                "
};
