/* XPM */
static char *d2cb0d48b1824a89e0ef4d0e89ba0835NJ2FnRB7PW1PRnN7[] = {
/* columns rows colors chars-per-pixel */
"32 32 2 1 ",
"  c None",
". c white",
/* pixels */
"                                ",
"                                ",
"                                ",
"                                ",
"                                ",
"                                ",
"             ...                ",
"             .....              ",
"             .   ..             ",
"             .    .             ",
"             .   ..             ",
"             ..... ..           ",
"               .. .             ",
"          .........             ",
"          .     .               ",
"          .     .               ",
"                .               ",
"                .  ..           ",
"                ... .           ",
"               ..   .           ",
"              ..    .           ",
"             .      .           ",
"            .                   ",
"                                ",
"                                ",
"                                ",
"                                ",
"                                ",
"                                ",
"                                ",
"                                ",
"                                "
};
