/* XPM */
static char *a2b835bd711e4f3ee713aa1ab09aa871dsatIhkZGWWGPbhO[] = {
/* columns rows colors chars-per-pixel */
"32 32 2 1 ",
"  c #0013FF",
". c white",
/* pixels */
"...... .........................",
".....  ....  ...................",
"....  ...   . ..................",
"...  ........ ..................",
"... .......... .................",
".. ..........  .................",
".  .......... ..................",
"        ....  ..................",
"   .... .... ...................",
"....... ..        ..............",
"....... ........................",
"....... ........................",
"................................",
"................................",
"................................",
"................................",
"................................",
"................................",
"................................",
"................................",
"................................",
"................................",
"................................",
"................................",
"................................",
"................................",
"................................",
"................................",
"................................",
"................................",
"................................",
"................................"
};
